<svg width="34" height="34" viewBox="0 0 34 34" fill="none" xmlns="http://www.w3.org/2000/svg">
<path d="M33.7973 9.70397C33.7199 7.95021 33.4361 6.74452 33.0296 5.69977C32.6102 4.5908 31.965 3.59793 31.1196 2.77256C30.2937 1.93435 29.2936 1.28302 28.1967 0.870456C27.1452 0.464193 25.9449 0.180589 24.19 0.103266C22.4219 0.0193938 21.8606 0 17.3762 0C12.8919 0 12.3306 0.0193938 10.569 0.0967173C8.81407 0.174041 7.60754 0.457896 6.56232 0.863907C5.45232 1.28302 4.45877 1.9278 3.63283 2.77256C2.79403 3.59793 2.1425 4.59735 1.7294 5.69348C1.32285 6.74452 1.03905 7.94367 0.961675 9.69742C0.877745 11.4643 0.858337 12.0252 0.858337 16.5064C0.858337 20.9877 0.877745 21.5486 0.955122 23.3089C1.0325 25.0626 1.31655 26.2683 1.7231 27.3131C2.1425 28.422 2.79403 29.4149 3.63283 30.2403C4.45877 31.0785 5.45888 31.7298 6.55577 32.1424C7.60754 32.5487 8.80752 32.8323 10.5627 32.9096C12.324 32.9872 12.8856 33.0063 17.3699 33.0063C21.8543 33.0063 22.4156 32.9872 24.1771 32.9096C25.9321 32.8323 27.1386 32.5487 28.1838 32.1424C30.4036 31.2848 32.1585 29.531 33.0167 27.3131C33.423 26.262 33.7071 25.0626 33.7845 23.3089C33.8618 21.5486 33.8813 20.9877 33.8813 16.5064C33.8813 12.0252 33.8747 11.4643 33.7973 9.70397ZM30.823 23.1799C30.7519 24.7919 30.4809 25.6623 30.2551 26.2426C29.7001 27.6805 28.5581 28.8218 27.1192 29.3764C26.5385 29.6021 25.6611 29.8728 24.0544 29.9436C22.3122 30.0212 21.7897 30.0403 17.3828 30.0403C12.9758 30.0403 12.4468 30.0212 10.7109 29.9436C9.09787 29.8728 8.22681 29.6021 7.64611 29.3764C6.93005 29.1119 6.27827 28.6928 5.74923 28.1447C5.20079 27.6095 4.78139 26.9647 4.51674 26.2492C4.29091 25.6689 4.01996 24.7919 3.94914 23.1865C3.87151 21.4456 3.85236 20.9232 3.85236 16.5193C3.85236 12.1154 3.87151 11.5867 3.94914 9.85232C4.01996 8.24037 4.29091 7.36991 4.51674 6.78961C4.78139 6.0738 5.20079 5.42272 5.75578 4.8938C6.29112 4.34573 6.93635 3.92662 7.65266 3.66241C8.23337 3.43674 9.11098 3.16598 10.7175 3.09495C12.4596 3.01763 12.9824 2.99824 17.3891 2.99824C21.8026 2.99824 22.3251 3.01763 24.0609 3.09495C25.674 3.16598 26.545 3.43674 27.1257 3.66241C27.8418 3.92662 28.4936 4.34573 29.0226 4.8938C29.5711 5.42902 29.9905 6.0738 30.2551 6.78961C30.4809 7.36991 30.7519 8.24666 30.823 9.85232C30.9003 11.5932 30.9197 12.1154 30.9197 16.5193C30.9197 20.9232 30.9003 21.439 30.823 23.1799Z" fill="#D4AF37"/>
<path d="M17.3696 7.96301C12.6854 7.96301 8.88483 11.7607 8.88483 16.4419C8.88483 21.1231 12.6854 24.9208 17.3696 24.9208C22.0541 24.9208 25.8544 21.1231 25.8544 16.4419C25.8544 11.7607 22.0541 7.96301 17.3696 7.96301ZM17.3696 21.9419C14.3307 21.9419 11.8657 19.4789 11.8657 16.4419C11.8657 13.4049 14.3307 10.9419 17.3696 10.9419C20.4087 10.9419 22.8735 13.4049 22.8735 16.4419C22.8735 19.4789 20.4087 21.9419 17.3696 21.9419Z" fill="#D4AF37"/>
<path d="M28.1709 7.62775C28.1709 8.72085 27.284 9.60718 26.1899 9.60718C25.096 9.60718 24.209 8.72085 24.209 7.62775C24.209 6.53439 25.096 5.64832 26.1899 5.64832C27.284 5.64832 28.1709 6.53439 28.1709 7.62775Z" fill="#D4AF37"/>
</svg>
