<?xml version="1.0" standalone="no"?>
<!DOCTYPE svg PUBLIC "-//W3C//DTD SVG 20010904//EN"
 "http://www.w3.org/TR/2001/REC-SVG-20010904/DTD/svg10.dtd">
<svg version="1.0" xmlns="http://www.w3.org/2000/svg"
 width="1280.000000pt" height="330.000000pt" viewBox="0 0 1280.000000 330.000000"
 preserveAspectRatio="xMidYMid meet">

<g transform="translate(0.000000,330.000000) scale(0.100000,-0.100000)"
fill="#000000" stroke="none">
<path d="M3272 3289 c-32 -12 -28 -62 5 -67 29 -4 91 -75 126 -144 l27 -53 0
-810 c0 -468 -4 -838 -10 -877 -5 -37 -20 -91 -33 -120 -31 -69 -109 -155
-150 -166 -28 -7 -32 -12 -32 -42 0 -60 1 -60 480 -60 479 0 480 0 480 60 0
30 -4 35 -34 44 -46 13 -103 74 -141 148 l-30 61 0 319 0 318 80 0 c47 0 95
-6 114 -14 50 -21 102 -93 264 -366 227 -381 323 -524 530 -785 178 -224 332
-378 527 -525 237 -180 597 -247 982 -185 199 32 346 91 534 213 239 156 402
355 416 509 6 68 -9 93 -56 93 -16 0 -102 -27 -193 -59 -191 -69 -426 -142
-549 -171 -168 -39 -433 -44 -620 -10 -196 36 -394 138 -578 299 -140 123
-446 519 -675 874 l-96 149 48 31 c26 18 69 43 95 57 159 82 306 263 337 415
17 82 15 226 -5 310 -21 93 -83 219 -146 297 -125 156 -277 234 -504 258 -116
12 -1162 12 -1193 -1z m245 -174 l23 -40 0 -917 c0 -572 -4 -926 -10 -942 -5
-14 -14 -26 -20 -26 -6 0 -11 323 -12 953 -3 899 -4 954 -21 985 -18 32 -18
34 0 30 9 -2 28 -21 40 -43z m808 -220 c102 -18 212 -72 259 -127 77 -89 88
-230 27 -352 -75 -152 -191 -195 -528 -196 l-123 0 0 345 0 345 143 0 c78 -1
178 -7 222 -15z m274 0 c45 -23 108 -102 132 -164 30 -78 38 -236 15 -313 -23
-80 -72 -148 -128 -178 -52 -27 -77 -20 -38 11 112 89 135 141 135 304 -1 143
-23 203 -106 289 -33 33 -59 61 -59 63 0 7 23 2 49 -12z m-256 -1039 c15 -18
74 -114 133 -212 147 -247 332 -525 450 -676 399 -508 590 -664 989 -807 55
-20 100 -40 100 -46 1 -57 -323 70 -532 208 -241 159 -653 643 -891 1047 -47
80 -118 197 -158 260 -73 116 -144 241 -144 253 0 19 31 3 53 -27z"/>
<path d="M9060 2434 c-99 -21 -198 -75 -282 -153 -132 -124 -192 -259 -192
-436 1 -176 50 -294 178 -421 136 -135 283 -192 475 -181 164 9 292 64 407
177 104 101 155 201 176 345 16 113 -3 239 -53 341 -49 100 -178 228 -279 278
-130 63 -286 81 -430 50z m-85 -72 c-6 -5 -45 -37 -88 -72 -89 -71 -126 -117
-169 -207 -81 -171 -77 -320 13 -494 46 -88 126 -182 178 -209 38 -19 71 -50
54 -50 -16 0 -125 74 -157 106 -61 62 -131 186 -160 283 -49 166 21 400 157
527 64 60 152 124 171 124 6 0 6 -3 1 -8z m471 -144 c46 -48 78 -104 107 -186
49 -133 45 -264 -11 -417 -21 -57 -39 -83 -94 -139 -37 -39 -71 -66 -75 -62
-4 4 16 28 44 54 61 55 76 79 103 156 75 218 33 450 -107 597 -47 50 -52 59
-28 46 17 -8 44 -30 61 -49z m-126 20 c63 -38 126 -123 154 -208 24 -72 32
-222 16 -302 -24 -128 -101 -248 -185 -288 -62 -30 -143 -29 -204 2 -60 31
-131 125 -162 215 -34 97 -34 278 -1 375 71 204 236 293 382 206z"/>
<path d="M41 2369 c-11 -27 -31 -163 -31 -209 0 -20 5 -30 15 -30 8 0 15 6 15
13 0 8 8 21 18 30 15 14 41 17 134 17 111 0 116 -1 122 -22 11 -42 7 -671 -5
-713 -14 -51 -45 -94 -75 -105 -13 -5 -24 -14 -24 -19 0 -27 33 -31 236 -29
208 3 209 3 212 26 2 14 -2 22 -11 22 -22 0 -65 55 -77 98 -7 24 -10 159 -8
387 l3 350 105 3 c126 3 147 -1 162 -33 12 -27 38 -34 38 -10 0 8 -7 63 -16
122 -16 108 -29 136 -50 108 -10 -13 -64 -15 -364 -15 -312 0 -356 2 -371 16
-17 15 -19 15 -28 -7z m24 -101 c-4 -35 -12 -67 -17 -73 -7 -7 -8 -3 -5 10 3
11 9 44 12 73 4 28 9 52 12 52 3 0 2 -28 -2 -62z m305 -457 c0 -219 -4 -372
-10 -381 -6 -10 -10 114 -10 360 0 206 -3 386 -6 400 -5 24 -5 24 10 6 14 -17
16 -68 16 -385z"/>
<path d="M6376 2364 c-85 -21 -187 -78 -264 -149 -109 -101 -155 -211 -155
-365 1 -165 40 -259 152 -370 84 -83 164 -129 271 -156 83 -21 221 -14 303 14
143 51 246 176 272 330 l7 42 -76 0 c-74 0 -76 0 -82 -27 -33 -152 -188 -250
-329 -208 -61 17 -129 74 -173 142 -74 116 -83 285 -24 406 61 122 157 196
256 197 64 0 118 -32 171 -101 124 -162 114 -154 183 -157 l62 -3 0 190 c0
104 -3 196 -6 205 -9 23 -41 20 -49 -4 -7 -22 -65 -70 -84 -70 -7 0 -38 16
-69 35 -102 62 -237 80 -366 49z m-66 -57 c0 -2 -21 -19 -47 -38 -161 -114
-243 -258 -243 -421 1 -164 113 -358 249 -431 19 -10 31 -20 28 -23 -3 -3 -29
7 -57 22 -131 71 -249 273 -250 424 0 119 70 281 157 360 55 50 163 121 163
107z"/>
<path d="M7838 2372 c-127 -2 -188 -6 -188 -13 0 -6 11 -20 25 -31 49 -39 55
-64 55 -248 l0 -170 -170 0 -170 0 0 172 c0 165 1 173 25 215 14 23 32 43 40
43 8 0 15 7 15 15 0 13 -29 15 -199 15 -110 0 -202 -4 -205 -9 -3 -5 5 -16 19
-25 14 -9 34 -34 45 -56 19 -37 20 -58 20 -407 0 -235 -4 -382 -11 -408 -13
-47 -54 -105 -74 -105 -21 0 -28 -19 -15 -35 10 -12 49 -15 210 -15 109 0 205
3 214 6 25 9 19 26 -17 56 -58 46 -67 78 -67 242 l0 146 170 0 170 0 0 -132
c0 -73 -5 -150 -10 -170 -12 -43 -55 -98 -77 -98 -9 0 -13 -8 -11 -22 3 -23 4
-23 212 -26 140 -2 213 1 222 9 15 12 8 39 -11 39 -20 0 -63 56 -75 98 -6 22
-10 186 -10 415 0 409 0 412 55 455 27 22 32 38 13 43 -7 2 -97 3 -200 1z
m-648 -81 c14 -26 14 -857 0 -866 -7 -4 -10 138 -10 420 0 275 -4 433 -10 446
-7 12 -7 19 -1 19 6 0 15 -9 21 -19z m590 -192 c0 -119 -4 -189 -10 -189 -6 0
-10 68 -10 184 0 101 -3 193 -7 203 -6 16 -5 16 10 4 15 -12 17 -37 17 -202z
m0 -503 c0 -99 -4 -167 -10 -171 -7 -4 -10 53 -10 164 0 107 4 171 10 171 6 0
10 -61 10 -164z"/>
<path d="M962 2354 c-14 -10 -13 -13 6 -23 12 -6 33 -31 47 -56 l26 -44 -3
-388 -3 -388 -25 -45 c-14 -24 -35 -50 -48 -56 -33 -16 -36 -22 -22 -39 19
-23 428 -22 437 1 4 10 -7 26 -32 47 -57 47 -65 76 -65 242 l0 145 170 0 170
0 0 -132 c0 -73 -5 -150 -10 -170 -12 -43 -55 -98 -77 -98 -9 0 -13 -8 -11
-22 l3 -23 215 0 215 0 3 23 c2 14 -2 22 -11 22 -22 0 -65 55 -77 98 -6 22
-10 186 -10 415 0 409 0 412 55 455 14 11 25 25 25 30 0 11 -306 22 -372 14
-26 -3 -42 -32 -18 -32 5 0 23 -19 40 -42 l30 -41 0 -174 0 -173 -170 0 -170
0 0 175 c0 173 0 176 26 215 15 22 33 40 40 40 24 0 15 30 -8 31 -221 5 -363
2 -376 -7z m118 -73 c13 -26 14 -840 0 -861 -6 -10 -10 133 -10 413 0 276 -4
435 -10 448 -7 12 -7 19 -1 19 6 0 15 -9 21 -19z m590 -192 c0 -119 -4 -189
-10 -189 -6 0 -10 68 -10 184 0 101 -3 193 -7 203 -6 16 -5 16 10 4 15 -12 17
-37 17 -202z m0 -503 c0 -99 -4 -167 -10 -171 -7 -4 -10 53 -10 164 0 107 4
171 10 171 6 0 10 -61 10 -164z"/>
<path d="M5466 2362 c-3 -5 7 -18 23 -30 60 -44 61 -54 61 -459 0 -235 -4
-382 -11 -408 -13 -47 -54 -105 -74 -105 -21 0 -28 -19 -15 -35 10 -12 49 -15
210 -15 109 0 205 3 214 6 19 7 21 44 3 44 -19 0 -54 39 -72 82 -13 32 -15 98
-15 424 l0 387 25 44 c14 23 32 43 40 43 8 0 15 7 15 15 0 13 -29 15 -199 15
-110 0 -202 -4 -205 -8z m134 -508 c0 -271 -4 -425 -10 -429 -7 -4 -10 137
-10 417 0 233 -3 434 -6 448 -5 24 -5 24 10 6 14 -17 16 -73 16 -442z"/>
<path d="M2080 2349 c0 -6 11 -20 25 -31 55 -43 55 -46 55 -463 0 -325 -2
-391 -15 -423 -18 -42 -52 -82 -71 -82 -17 0 -25 -25 -11 -39 8 -8 123 -11
389 -11 l377 0 7 38 c4 20 12 66 19 102 6 36 10 71 8 78 -6 17 -33 15 -33 -2
0 -7 -11 -21 -25 -30 -20 -13 -56 -16 -215 -16 l-190 0 0 165 0 165 140 0 140
0 0 28 c0 15 -3 51 -6 80 l-7 52 -133 0 -134 0 0 115 0 115 179 0 180 0 19
-25 c38 -48 45 -34 38 77 -4 56 -9 105 -12 110 -8 13 -724 10 -724 -3z m130
-495 c0 -271 -4 -425 -10 -429 -7 -4 -10 138 -10 419 0 233 -3 433 -7 443 -6
16 -5 16 10 4 15 -12 17 -52 17 -437z"/>
<path d="M9873 2303 c-17 -6 -17 -33 0 -33 15 0 59 -45 75 -75 5 -11 54 -195
107 -409 79 -315 96 -398 92 -439 -3 -32 -11 -55 -22 -63 -10 -7 -15 -20 -12
-29 6 -13 39 -15 242 -15 207 0 236 2 242 16 3 9 1 19 -4 23 -17 10 -33 48
-33 76 0 14 45 206 101 428 104 418 119 460 174 485 29 13 32 27 9 36 -9 3
-80 6 -159 6 -114 0 -145 -3 -155 -15 -10 -12 -9 -16 3 -21 17 -6 37 -54 37
-88 1 -34 -174 -736 -180 -726 -4 6 -46 169 -95 363 -95 376 -98 405 -54 446
l21 19 -20 11 c-21 11 -344 15 -369 4z m747 -79 c8 -21 -8 -100 -85 -407 -90
-359 -111 -427 -135 -427 -6 0 -4 10 4 23 24 37 206 774 199 808 -7 36 4 38
17 3z m-625 -16 c8 -18 60 -214 115 -435 80 -321 98 -407 90 -428 -13 -33 -24
-32 -17 3 6 28 -181 800 -208 860 -8 18 -10 32 -5 32 6 0 17 -15 25 -32z"/>
<path d="M10953 2303 c-19 -7 -16 -31 5 -37 10 -4 28 -24 41 -46 22 -39 22
-42 19 -438 l-3 -398 -28 -43 c-16 -24 -37 -46 -48 -48 -26 -7 -24 -39 4 -47
12 -3 185 -6 383 -6 l361 0 17 88 c10 48 20 97 23 109 8 36 -20 38 -55 4 -21
-22 -38 -30 -54 -27 -13 3 -98 5 -190 5 l-168 1 0 160 0 160 140 0 140 0 0 34
c0 18 -3 54 -6 80 l-7 46 -134 0 -134 0 3 118 3 117 160 3 c168 3 209 -5 220
-39 4 -10 13 -19 22 -19 14 0 15 13 9 107 -4 59 -10 111 -12 115 -6 9 -691 10
-711 1z m117 -509 c0 -276 -3 -424 -10 -424 -7 0 -10 146 -10 419 0 231 -3
428 -7 438 -6 16 -5 16 10 4 15 -12 17 -52 17 -437z"/>
<path d="M11833 2303 c-18 -7 -16 -33 2 -33 8 0 26 -20 40 -44 l26 -44 -3
-399 -3 -399 -28 -43 c-16 -24 -37 -46 -48 -48 -31 -9 -23 -40 12 -47 40 -8
277 -8 307 0 24 7 31 44 8 44 -8 0 -28 17 -43 37 l-28 36 -3 216 c-2 119 -2
252 0 296 l3 80 172 -343 c94 -189 177 -350 184 -358 10 -12 41 -14 173 -12
144 3 161 5 164 21 2 10 -3 17 -11 17 -9 0 -25 15 -36 34 -20 32 -21 45 -21
447 l0 414 25 37 c14 20 34 39 45 43 11 3 20 14 20 24 0 25 -36 31 -180 31
-65 0 -132 -3 -149 -6 -40 -8 -40 -33 1 -59 65 -42 69 -60 66 -371 l-3 -279
-177 351 c-97 193 -184 354 -193 358 -19 7 -304 7 -322 -1z m107 -82 c14 -26
14 -857 0 -866 -7 -4 -10 138 -10 420 0 275 -4 433 -10 446 -7 12 -7 19 -1 19
6 0 15 -9 21 -19z m630 -347 c0 -205 -4 -325 -10 -329 -7 -4 -10 106 -10 324
0 181 -3 338 -6 348 -5 16 -4 16 10 -1 14 -17 16 -63 16 -342z m-458 129 c18
-21 368 -716 363 -722 -12 -12 -44 47 -194 353 -92 187 -175 347 -184 355 -18
14 -23 31 -9 31 5 0 16 -8 24 -17z"/>
<path d="M210 1110 l0 -70 1315 0 1315 0 0 70 0 70 -1315 0 -1315 0 0 -70z"/>
<path d="M5400 1110 l0 -70 3695 0 3695 0 0 54 c0 30 -3 61 -6 70 -6 15 -340
16 -3695 16 l-3689 0 0 -70z"/>
<path d="M210 1000 c0 -20 7 -20 1315 -20 1308 0 1315 0 1315 20 0 20 -7 20
-1315 20 -1308 0 -1315 0 -1315 -20z"/>
<path d="M5400 1000 c0 -20 4 -20 3693 -18 3274 3 3692 5 3692 18 0 13 -418
15 -3692 18 -3689 2 -3693 2 -3693 -18z"/>
<path d="M7877 793 c-16 -15 -4 -42 43 -98 48 -56 49 -60 52 -129 3 -63 5 -71
23 -71 18 0 20 8 23 70 3 69 4 71 57 135 30 35 55 67 55 71 0 4 -7 13 -16 20
-15 12 -23 7 -68 -43 l-51 -57 -48 54 c-48 55 -58 61 -70 48z"/>
<path d="M8354 780 c-105 -53 -111 -189 -10 -264 38 -29 124 -29 162 0 51 38
69 71 69 129 0 117 -117 188 -221 135z m141 -67 c19 -19 25 -36 25 -67 0 -110
-156 -135 -190 -30 -10 28 -9 40 7 72 30 62 108 75 158 25z"/>
<path d="M8743 793 c-9 -3 -13 -34 -13 -106 0 -118 14 -152 73 -180 44 -21 80
-21 124 0 59 27 73 63 73 179 0 72 -4 103 -12 106 -32 12 -38 -4 -38 -96 0
-79 -3 -97 -21 -120 -16 -21 -29 -26 -63 -26 -67 0 -80 21 -86 143 -5 97 -10
111 -37 100z"/>
<path d="M9393 789 c-20 -20 -18 -273 2 -289 23 -19 129 -8 163 17 85 64 86
192 1 256 -33 24 -148 35 -166 16z m151 -80 c29 -35 33 -76 11 -118 -16 -33
-33 -41 -81 -41 l-34 0 0 95 0 95 39 0 c32 0 44 -6 65 -31z"/>
<path d="M9792 788 c-18 -18 -17 -272 2 -287 9 -8 43 -11 92 -9 68 3 79 6 82
22 5 26 -15 36 -75 36 -46 0 -53 3 -53 20 0 17 7 20 39 20 39 0 68 20 56 40
-3 5 -26 10 -51 10 l-44 0 0 50 0 49 62 3 c52 2 63 6 66 22 2 10 -2 22 -10 27
-20 13 -152 11 -166 -3z"/>
<path d="M10173 785 c-59 -25 -72 -93 -27 -139 22 -21 36 -26 78 -26 59 0 90
-17 84 -46 -3 -16 -13 -19 -68 -22 -96 -3 -112 -9 -108 -35 3 -20 9 -22 77
-25 83 -3 123 9 139 41 15 30 17 48 9 79 -10 36 -39 51 -111 58 -66 6 -90 26
-67 54 10 12 32 16 81 16 75 0 104 16 80 45 -16 19 -123 20 -167 0z"/>
<path d="M10532 788 c-18 -18 -17 -272 2 -287 9 -8 43 -11 92 -9 68 3 79 6 82
22 5 26 -15 36 -75 36 -46 0 -53 3 -53 20 0 17 7 20 39 20 39 0 68 20 56 40
-3 5 -26 10 -51 10 l-44 0 0 50 0 49 62 3 c52 2 63 6 66 22 2 10 -2 22 -10 27
-20 13 -152 11 -166 -3z"/>
<path d="M10881 786 c-8 -9 -11 -59 -9 -152 3 -131 4 -139 23 -139 17 0 20 8
23 58 l3 57 44 0 c42 0 44 -2 74 -54 36 -64 48 -74 68 -54 13 14 11 21 -13 65
l-28 49 22 22 c47 47 34 113 -28 144 -44 22 -162 25 -179 4z m167 -58 c36 -36
-3 -71 -76 -66 -46 3 -47 3 -50 41 l-3 37 58 0 c33 0 64 -5 71 -12z"/>
<path d="M11293 793 c-7 -3 -13 -12 -13 -21 0 -24 98 -254 116 -272 22 -22 36
-2 93 133 52 121 59 151 41 162 -19 12 -37 -13 -75 -105 -21 -50 -41 -90 -44
-90 -4 0 -25 43 -47 95 -39 94 -48 106 -71 98z"/>
<path d="M11722 792 c-9 -7 -12 -44 -10 -153 l3 -144 81 -3 c61 -2 84 1 93 12
21 25 -13 46 -75 46 -47 0 -54 3 -54 19 0 17 8 20 48 23 39 3 47 6 47 23 0 17
-8 20 -47 23 l-48 3 0 50 0 49 58 0 c65 0 87 13 71 42 -8 15 -22 18 -82 18
-40 0 -78 -4 -85 -8z"/>
<path d="M12282 788 c-8 -8 -12 -56 -12 -149 0 -119 2 -138 17 -143 9 -4 21
-2 26 3 10 10 12 275 2 291 -8 13 -18 13 -33 -2z"/>
<path d="M12492 788 c-29 -29 -7 -48 59 -48 l38 0 3 -122 c3 -115 4 -123 23
-123 19 0 20 8 23 122 l3 122 52 3 c48 3 52 5 52 28 l0 25 -120 3 c-85 2 -124
-1 -133 -10z"/>
</g>
</svg>
